<svg version="1.1" viewBox="0.0 0.0 350.0 299.0" fill="none" stroke="none" stroke-linecap="square" stroke-miterlimit="10" width="350" height="299" xmlns:xlink="http://www.w3.org/1999/xlink" xmlns="http://www.w3.org/2000/svg"><path fill="#ffffff" fill-opacity="0.0" d="M0 0L350.0 0L350.0 299.0L0 299.0L0 0Z" fill-rule="nonzero"/><path fill="#4285f4" d="M175.0 14.95C233.29059 14.95 284.95187 52.484116 302.96466 107.92176C320.97745 163.3594 301.2446 224.09088 254.0865 258.35324L175.0 149.5Z" fill-rule="nonzero"/><path fill="#ea4335" d="M254.0865 258.35324C206.92842 292.6156 143.07158 292.6156 95.9135 258.35324C48.755413 224.09088 29.022562 163.3594 47.035347 107.92176C65.04813 52.484116 116.709404 14.95 175.0 14.95L175.0 149.5Z" fill-rule="nonzero"/><path fill="#000000" d="M226.2137 132.49806L226.2137 128.38869L218.76057 128.38869L218.76057 126.45119L226.5887 115.31056L228.32307 115.31056L228.32307 126.45119L230.63557 126.45119L230.63557 128.38869L228.32307 128.38869L228.32307 132.49806L226.2137 132.49806ZM226.2137 126.45119L226.2137 118.70119L220.82307 126.45119L226.2137 126.45119ZM232.44807 124.02931Q232.44807 120.98244 233.07307 119.12306Q233.69807 117.26369 234.93245 116.26369Q236.16682 115.24806 238.04182 115.24806Q239.43245 115.24806 240.4637 115.81056Q241.51057 116.35744 242.18245 117.40431Q242.86995 118.45119 243.26057 119.96681Q243.6512 121.46681 243.6512 124.02931Q243.6512 127.04494 243.0262 128.90431Q242.4012 130.76369 241.16682 131.77931Q239.93245 132.79494 238.04182 132.79494Q235.55745 132.79494 234.1512 131.01369Q232.44807 128.85744 232.44807 124.02931ZM234.61995 124.02931Q234.61995 128.24806 235.60432 129.65431Q236.5887 131.06056 238.04182 131.06056Q239.49495 131.06056 240.47932 129.65431Q241.47932 128.24806 241.47932 124.02931Q241.47932 119.77931 240.47932 118.38869Q239.49495 116.99806 238.0262 116.99806Q236.57307 116.99806 235.69807 118.21681Q234.61995 119.79494 234.61995 124.02931ZM246.63557 132.49806L246.63557 130.09181L249.0262 130.09181L249.0262 132.49806L246.63557 132.49806ZM252.44807 124.02931Q252.44807 120.98244 253.07307 119.12306Q253.69807 117.26369 254.93245 116.26369Q256.1668 115.24806 258.0418 115.24806Q259.43243 115.24806 260.46368 115.81056Q261.51056 116.35744 262.18243 117.40431Q262.86993 118.45119 263.26056 119.96681Q263.65118 121.46681 263.65118 124.02931Q263.65118 127.04494 263.02618 128.90431Q262.40118 130.76369 261.1668 131.77931Q259.93243 132.79494 258.0418 132.79494Q255.55745 132.79494 254.1512 131.01369Q252.44807 128.85744 252.44807 124.02931ZM254.61995 124.02931Q254.61995 128.24806 255.60432 129.65431Q256.58868 131.06056 258.0418 131.06056Q259.49493 131.06056 260.4793 129.65431Q261.4793 128.24806 261.4793 124.02931Q261.4793 119.77931 260.4793 118.38869Q259.49493 116.99806 258.02618 116.99806Q256.57306 116.99806 255.69807 118.21681Q254.61995 119.79494 254.61995 124.02931ZM265.83868 119.43556Q265.83868 117.60744 266.76056 116.32619Q267.69806 115.02931 269.44806 115.02931Q271.07306 115.02931 272.13556 116.18556Q273.19806 117.32619 273.19806 119.57619Q273.19806 121.74806 272.11993 122.93556Q271.0418 124.10744 269.4793 124.10744Q267.9168 124.10744 266.86993 122.95119Q265.83868 121.77931 265.83868 119.43556ZM269.51056 116.48244Q268.7293 116.48244 268.19806 117.16994Q267.68243 117.84181 267.68243 119.65431Q267.68243 121.31056 268.21368 121.98244Q268.74493 122.65431 269.51056 122.65431Q270.30743 122.65431 270.82306 121.98244Q271.3543 121.29494 271.3543 119.48244Q271.3543 117.82619 270.82306 117.15431Q270.2918 116.48244 269.51056 116.48244ZM269.52618 133.13869L278.9168 115.02931L280.63556 115.02931L271.27618 133.13869L269.52618 133.13869ZM276.94806 128.46681Q276.94806 126.60744 277.86993 125.32619Q278.80743 124.04494 280.57306 124.04494Q282.19806 124.04494 283.24493 125.20119Q284.30743 126.35744 284.30743 128.59181Q284.30743 130.77931 283.2293 131.96681Q282.1668 133.13869 280.58868 133.13869Q279.02618 133.13869 277.9793 131.96681Q276.94806 130.79494 276.94806 128.46681ZM280.63556 125.49806Q279.83868 125.49806 279.30743 126.18556Q278.7918 126.85744 278.7918 128.66994Q278.7918 130.31056 279.32306 130.99806Q279.8543 131.66994 280.61993 131.66994Q281.43243 131.66994 281.94806 130.99806Q282.4793 130.31056 282.4793 128.51369Q282.4793 126.84181 281.94806 126.16994Q281.4168 125.49806 280.63556 125.49806Z" fill-rule="nonzero"/><path fill="#000000" d="M76.489426 169.53319L74.395676 169.68944Q74.114426 168.45506 73.5988 167.89256Q72.739426 166.98631 71.489426 166.98631Q70.489426 166.98631 69.7238 167.54881Q68.7238 168.26756 68.145676 169.67381Q67.583176 171.06444 67.551926 173.64256Q68.31755 172.48631 69.4113 171.92381Q70.520676 171.36131 71.7238 171.36131Q73.833176 171.36131 75.31755 172.90819Q76.801926 174.45506 76.801926 176.92381Q76.801926 178.53319 76.0988 179.92381Q75.4113 181.31444 74.19255 182.06444Q72.9738 182.79881 71.426926 182.79881Q68.7863 182.79881 67.114426 180.86131Q65.458176 178.90819 65.458176 174.45506Q65.458176 169.48631 67.301926 167.22069Q68.895676 165.25194 71.614426 165.25194Q73.645676 165.25194 74.94255 166.39256Q76.239426 167.51756 76.489426 169.53319ZM67.88005 176.93944Q67.88005 178.01756 68.333176 179.01756Q68.801926 180.01756 69.63005 180.54881Q70.4738 181.06444 71.38005 181.06444Q72.7238 181.06444 73.676926 179.98631Q74.645676 178.90819 74.645676 177.04881Q74.645676 175.26756 73.69255 174.25194Q72.739426 173.22069 71.301926 173.22069Q69.88005 173.22069 68.88005 174.25194Q67.88005 175.26756 67.88005 176.93944ZM78.551926 174.03319Q78.551926 170.98631 79.176926 169.12694Q79.801926 167.26756 81.0363 166.26756Q82.270676 165.25194 84.145676 165.25194Q85.5363 165.25194 86.56755 165.81444Q87.614426 166.36131 88.2863 167.40819Q88.9738 168.45506 89.364426 169.97069Q89.75505 171.47069 89.75505 174.03319Q89.75505 177.04881 89.13005 178.90819Q88.50505 180.76756 87.270676 181.78319Q86.0363 182.79881 84.145676 182.79881Q81.6613 182.79881 80.25505 181.01756Q78.551926 178.86131 78.551926 174.03319ZM80.7238 174.03319Q80.7238 178.25194 81.708176 179.65819Q82.69255 181.06444 84.145676 181.06444Q85.5988 181.06444 86.583176 179.65819Q87.583176 178.25194 87.583176 174.03319Q87.583176 169.78319 86.583176 168.39256Q85.5988 167.00194 84.13005 167.00194Q82.676926 167.00194 81.801926 168.22069Q80.7238 169.79881 80.7238 174.03319ZM92.739426 182.50194L92.739426 180.09569L95.13005 180.09569L95.13005 182.50194L92.739426 182.50194ZM98.551926 174.03319Q98.551926 170.98631 99.176926 169.12694Q99.801926 167.26756 101.0363 166.26756Q102.270676 165.25194 104.145676 165.25194Q105.5363 165.25194 106.56755 165.81444Q107.614426 166.36131 108.2863 167.40819Q108.9738 168.45506 109.364426 169.97069Q109.75505 171.47069 109.75505 174.03319Q109.75505 177.04881 109.13005 178.90819Q108.50505 180.76756 107.270676 181.78319Q106.0363 182.79881 104.145676 182.79881Q101.6613 182.79881 100.25505 181.01756Q98.551926 178.86131 98.551926 174.03319ZM100.7238 174.03319Q100.7238 178.25194 101.708176 179.65819Q102.69255 181.06444 104.145676 181.06444Q105.5988 181.06444 106.583176 179.65819Q107.583176 178.25194 107.583176 174.03319Q107.583176 169.78319 106.583176 168.39256Q105.5988 167.00194 104.13005 167.00194Q102.676926 167.00194 101.801926 168.22069Q100.7238 169.79881 100.7238 174.03319ZM111.94255 169.43944Q111.94255 167.61131 112.864426 166.33006Q113.801926 165.03319 115.551926 165.03319Q117.176926 165.03319 118.239426 166.18944Q119.301926 167.33006 119.301926 169.58006Q119.301926 171.75194 118.2238 172.93944Q117.145676 174.11131 115.583176 174.11131Q114.020676 174.11131 112.9738 172.95506Q111.94255 171.78319 111.94255 169.43944ZM115.614426 166.48631Q114.833176 166.48631 114.301926 167.17381Q113.7863 167.84569 113.7863 169.65819Q113.7863 171.31444 114.31755 171.98631Q114.8488 172.65819 115.614426 172.65819Q116.4113 172.65819 116.926926 171.98631Q117.458176 171.29881 117.458176 169.48631Q117.458176 167.83006 116.926926 167.15819Q116.395676 166.48631 115.614426 166.48631ZM115.63005 183.14256L125.020676 165.03319L126.739426 165.03319L117.38005 183.14256L115.63005 183.14256ZM123.051926 178.47069Q123.051926 176.61131 123.9738 175.33006Q124.9113 174.04881 126.676926 174.04881Q128.30193 174.04881 129.3488 175.20506Q130.4113 176.36131 130.4113 178.59569Q130.4113 180.78319 129.33318 181.97069Q128.27068 183.14256 126.69255 183.14256Q125.13005 183.14256 124.083176 181.97069Q123.051926 180.79881 123.051926 178.47069ZM126.739426 175.50194Q125.94255 175.50194 125.4113 176.18944Q124.895676 176.86131 124.895676 178.67381Q124.895676 180.31444 125.426926 181.00194Q125.958176 181.67381 126.7238 181.67381Q127.5363 181.67381 128.05193 181.00194Q128.58318 180.31444 128.58318 178.51756Q128.58318 176.84569 128.05193 176.17381Q127.520676 175.50194 126.739426 175.50194Z" fill-rule="nonzero"/></svg>