<svg version="1.1" viewBox="0.0 0.0 350.0 299.0" fill="none" stroke="none" stroke-linecap="square" stroke-miterlimit="10" width="350" height="299" xmlns:xlink="http://www.w3.org/1999/xlink" xmlns="http://www.w3.org/2000/svg"><path fill="#ffffff" fill-opacity="0.0" d="M0 0L350.0 0L350.0 299.0L0 299.0L0 0Z" fill-rule="nonzero"/><path fill="#4285f4" d="M175.0 14.95C239.58797 14.95 295.06418 60.8439 307.16675 124.28784L175.0 149.5Z" fill-rule="nonzero"/><path fill="#ea4335" d="M307.16675 124.28784C317.79816 180.01965 292.32724 236.43147 243.49152 265.31284C194.6558 294.1942 132.95103 289.33792 89.234604 253.17256C45.51817 217.00717 29.185596 157.30534 48.40449 103.92281C67.62339 50.540276 118.26323 14.95 175.0 14.95L175.0 149.5Z" fill-rule="nonzero"/><path fill="#000000" d="M205.95044 92.1615L205.95044 94.19275L194.60669 94.19275Q194.57544 93.427124 194.84106 92.724Q195.27856 91.56775 196.23169 90.44275Q197.18481 89.31775 198.99731 87.833374Q201.79419 85.5365 202.77856 84.208374Q203.76294 82.864624 203.76294 81.6615Q203.76294 80.4115 202.85669 79.552124Q201.96606 78.69275 200.52856 78.69275Q199.01294 78.69275 198.09106 79.614624Q197.18481 80.520874 197.16919 82.13025L194.99731 81.9115Q195.21606 79.489624 196.66919 78.224Q198.12231 76.94275 200.57544 76.94275Q203.04419 76.94275 204.48169 78.31775Q205.93481 79.677124 205.93481 81.708374Q205.93481 82.739624 205.51294 83.739624Q205.09106 84.739624 204.10669 85.849Q203.13794 86.94275 200.85669 88.864624Q198.96606 90.458374 198.41919 91.020874Q197.88794 91.583374 197.52856 92.1615L205.95044 92.1615ZM218.95044 92.1615L218.95044 94.19275L207.60669 94.19275Q207.57544 93.427124 207.84106 92.724Q208.27856 91.56775 209.23169 90.44275Q210.18481 89.31775 211.99731 87.833374Q214.79419 85.5365 215.77856 84.208374Q216.76294 82.864624 216.76294 81.6615Q216.76294 80.4115 215.85669 79.552124Q214.96606 78.69275 213.52856 78.69275Q212.01294 78.69275 211.09106 79.614624Q210.18481 80.520874 210.16919 82.13025L207.99731 81.9115Q208.21606 79.489624 209.66919 78.224Q211.12231 76.94275 213.57544 76.94275Q216.04419 76.94275 217.48169 78.31775Q218.93481 79.677124 218.93481 81.708374Q218.93481 82.739624 218.51294 83.739624Q218.09106 84.739624 217.10669 85.849Q216.13794 86.94275 213.85669 88.864624Q211.96606 90.458374 211.41919 91.020874Q210.88794 91.583374 210.52856 92.1615L218.95044 92.1615ZM222.05981 94.19275L222.05981 91.7865L224.45044 91.7865L224.45044 94.19275L222.05981 94.19275ZM227.87231 85.724Q227.87231 82.677124 228.49731 80.81775Q229.12231 78.958374 230.35669 77.958374Q231.59106 76.94275 233.46606 76.94275Q234.85669 76.94275 235.88794 77.50525Q236.93481 78.052124 237.60669 79.099Q238.29419 80.145874 238.68481 81.6615Q239.07544 83.1615 239.07544 85.724Q239.07544 88.739624 238.45044 90.599Q237.82544 92.458374 236.59106 93.474Q235.35669 94.489624 233.46606 94.489624Q230.98169 94.489624 229.57544 92.708374Q227.87231 90.552124 227.87231 85.724ZM230.04419 85.724Q230.04419 89.94275 231.02856 91.349Q232.01294 92.75525 233.46606 92.75525Q234.91919 92.75525 235.90356 91.349Q236.90356 89.94275 236.90356 85.724Q236.90356 81.474 235.90356 80.083374Q234.91919 78.69275 233.45044 78.69275Q231.99731 78.69275 231.12231 79.9115Q230.04419 81.489624 230.04419 85.724ZM241.26294 81.13025Q241.26294 79.302124 242.18481 78.020874Q243.12231 76.724 244.87231 76.724Q246.49731 76.724 247.55981 77.88025Q248.62231 79.020874 248.62231 81.270874Q248.62231 83.44275 247.54419 84.63025Q246.46606 85.802124 244.90356 85.802124Q243.34106 85.802124 242.29419 84.645874Q241.26294 83.474 241.26294 81.13025ZM244.93481 78.177124Q244.15356 78.177124 243.62231 78.864624Q243.10669 79.5365 243.10669 81.349Q243.10669 83.00525 243.63794 83.677124Q244.16919 84.349 244.93481 84.349Q245.73169 84.349 246.24731 83.677124Q246.77856 82.989624 246.77856 81.177124Q246.77856 79.520874 246.24731 78.849Q245.71606 78.177124 244.93481 78.177124ZM244.95044 94.833374L254.34106 76.724L256.0598 76.724L246.70044 94.833374L244.95044 94.833374ZM252.37231 90.1615Q252.37231 88.302124 253.29419 87.020874Q254.23169 85.739624 255.99731 85.739624Q257.6223 85.739624 258.6692 86.895874Q259.7317 88.052124 259.7317 90.2865Q259.7317 92.474 258.65356 93.6615Q257.59106 94.833374 256.01294 94.833374Q254.45044 94.833374 253.40356 93.6615Q252.37231 92.489624 252.37231 90.1615ZM256.0598 87.19275Q255.26294 87.19275 254.73169 87.88025Q254.21606 88.552124 254.21606 90.364624Q254.21606 92.00525 254.74731 92.69275Q255.27856 93.364624 256.0442 93.364624Q256.8567 93.364624 257.3723 92.69275Q257.90356 92.00525 257.90356 90.208374Q257.90356 88.5365 257.3723 87.864624Q256.84106 87.19275 256.0598 87.19275Z" fill-rule="nonzero"/><path fill="#000000" d="M90.26831 205.86975L90.26831 203.85413L101.39331 203.85413L101.39331 205.49475Q99.752686 207.22913 98.127686 210.13538Q96.51831 213.026 95.64331 216.0885Q95.01831 218.24475 94.83081 220.80725L92.67456 220.80725Q92.70581 218.776 93.45581 215.91663Q94.221436 213.04163 95.64331 210.36975Q97.08081 207.69788 98.67456 205.86975L90.26831 205.86975ZM106.377686 211.49475Q105.065186 211.01038 104.42456 210.11975Q103.79956 209.22913 103.79956 207.97913Q103.79956 206.10413 105.14331 204.8385Q106.48706 203.55725 108.721436 203.55725Q110.971436 203.55725 112.346436 204.86975Q113.721436 206.16663 113.721436 208.04163Q113.721436 209.24475 113.096436 210.13538Q112.471436 211.01038 111.190186 211.49475Q112.76831 212.01038 113.596436 213.16663Q114.42456 214.30725 114.42456 215.901Q114.42456 218.10413 112.86206 219.60413Q111.29956 221.10413 108.76831 221.10413Q106.221436 221.10413 104.658936 219.60413Q103.096436 218.0885 103.096436 215.8385Q103.096436 214.16663 103.940186 213.04163Q104.79956 211.901 106.377686 211.49475ZM105.95581 207.91663Q105.95581 209.13538 106.73706 209.91663Q107.51831 210.68225 108.76831 210.68225Q109.98706 210.68225 110.76831 209.91663Q111.54956 209.151 111.54956 208.026Q111.54956 206.86975 110.73706 206.0885Q109.940186 205.29163 108.752686 205.29163Q107.54956 205.29163 106.752686 206.07288Q105.95581 206.8385 105.95581 207.91663ZM105.26831 215.85413Q105.26831 216.74475 105.690186 217.5885Q106.127686 218.43225 106.971436 218.901Q107.815186 219.36975 108.783936 219.36975Q110.29956 219.36975 111.283936 218.401Q112.26831 217.41663 112.26831 215.91663Q112.26831 214.401 111.252686 213.401Q110.23706 212.401 108.721436 212.401Q107.221436 212.401 106.23706 213.38538Q105.26831 214.36975 105.26831 215.85413ZM117.315186 220.80725L117.315186 218.401L119.70581 218.401L119.70581 220.80725L117.315186 220.80725ZM123.127686 212.3385Q123.127686 209.29163 123.752686 207.43225Q124.377686 205.57288 125.61206 204.57288Q126.846436 203.55725 128.72144 203.55725Q130.11206 203.55725 131.14331 204.11975Q132.19019 204.66663 132.86206 205.7135Q133.54956 206.76038 133.94019 208.276Q134.33081 209.776 134.33081 212.3385Q134.33081 215.35413 133.70581 217.2135Q133.08081 219.07288 131.84644 220.0885Q130.61206 221.10413 128.72144 221.10413Q126.23706 221.10413 124.83081 219.32288Q123.127686 217.16663 123.127686 212.3385ZM125.29956 212.3385Q125.29956 216.55725 126.283936 217.9635Q127.26831 219.36975 128.72144 219.36975Q130.17456 219.36975 131.15894 217.9635Q132.15894 216.55725 132.15894 212.3385Q132.15894 208.0885 131.15894 206.69788Q130.17456 205.30725 128.70581 205.30725Q127.252686 205.30725 126.377686 206.526Q125.29956 208.10413 125.29956 212.3385ZM136.51831 207.74475Q136.51831 205.91663 137.44019 204.63538Q138.37769 203.3385 140.12769 203.3385Q141.75269 203.3385 142.81519 204.49475Q143.87769 205.63538 143.87769 207.88538Q143.87769 210.05725 142.79956 211.24475Q141.72144 212.41663 140.15894 212.41663Q138.59644 212.41663 137.54956 211.26038Q136.51831 210.0885 136.51831 207.74475ZM140.19019 204.79163Q139.40894 204.79163 138.87769 205.47913Q138.36206 206.151 138.36206 207.9635Q138.36206 209.61975 138.89331 210.29163Q139.42456 210.9635 140.19019 210.9635Q140.98706 210.9635 141.50269 210.29163Q142.03394 209.60413 142.03394 207.79163Q142.03394 206.13538 141.50269 205.4635Q140.97144 204.79163 140.19019 204.79163ZM140.20581 221.44788L149.59644 203.3385L151.31519 203.3385L141.95581 221.44788L140.20581 221.44788ZM147.62769 216.776Q147.62769 214.91663 148.54956 213.63538Q149.48706 212.35413 151.25269 212.35413Q152.87769 212.35413 153.92456 213.51038Q154.98706 214.66663 154.98706 216.901Q154.98706 219.0885 153.90894 220.276Q152.84644 221.44788 151.26831 221.44788Q149.70581 221.44788 148.65894 220.276Q147.62769 219.10413 147.62769 216.776ZM151.31519 213.80725Q150.51831 213.80725 149.98706 214.49475Q149.47144 215.16663 149.47144 216.97913Q149.47144 218.61975 150.00269 219.30725Q150.53394 219.97913 151.29956 219.97913Q152.11206 219.97913 152.62769 219.30725Q153.15894 218.61975 153.15894 216.82288Q153.15894 215.151 152.62769 214.47913Q152.09644 213.80725 151.31519 213.80725Z" fill-rule="nonzero"/></svg>