<?xml version="1.0" encoding="UTF-8" standalone="no"?>
<svg xmlns:rdf="http://www.w3.org/1999/02/22-rdf-syntax-ns#" xmlns="http://www.w3.org/2000/svg" xml:space="preserve" height="76.967" viewBox="0 0 151.90808 76.966797" width="151.91" version="1.1" xmlns:cc="http://creativecommons.org/ns#" xmlns:dc="http://purl.org/dc/elements/1.1/"><g transform="matrix(1.25 0 0 -1.25 -212.35 551.69)"><g transform="translate(.71318 .71318)"><path d="m37.469 0c-20.355 0-36.92 16.227-37.469 36.449 9.6562-1.62 20.296 3.7608 26.225 7.457 12.752 7.9525 23.397 7.5624 29.082 3.6387-4.5812 4.045-13.776 5.8371-26.229 1.5059-6.5438-2.2762-11.899-3.0684-16.189-3.0684-5.3638 0-9.0552 1.2383-11.303 2.3633 1.4438 4.7738 3.8155 9.145 6.9043 12.906 6.1875-5.7512 14.952-7.5948 29.422-7.0898 9.1462 0.31875 14.885-1.8934 18.262-5.4297-2.7675 3.6275-7.6469 6.1477-14.547 7.4902-12.426 2.4188-19.687 5.2409-23.65 13.273 5.68 3.4662 12.351 5.4707 19.492 5.4707 20.701 0 37.482-16.783 37.482-37.484s-16.781-37.482-37.482-37.482zm47.584 19.09v16.465h3.623v-4.9375h2.752c3.6938 0 6.6562-1.9771 6.6562-5.7871v-0.04687c0-3.3638-2.3752-5.6934-6.3027-5.6934h-6.7285zm3.623 3.2695h2.7988c1.8125 0 2.9414 0.87164 2.9414 2.4941v0.04687c0 1.4112-1.0591 2.4922-2.8691 2.4922h-2.8711v-5.0332zm16.107 0.35352c-3.6688 0-6.2324 2.9638-6.2324 6.5625v0.04687c0 3.8575 2.8016 6.5156 6.5879 6.5156 2.2812 0 3.9741-0.89477 5.1504-2.3535l-2.0469-1.8086c-0.9875 0.91625-1.8579 1.293-3.0566 1.293-1.6 0-2.7283-0.8482-3.082-2.4707h8.7734c0.0238-0.32875 0.0469-0.65891 0.0469-0.94141 0-3.575-1.9294-6.8438-6.1406-6.8438zm27.059 0c-3.8588 0-6.6113 2.9638-6.6113 6.5625v0.04687c0 3.5988 2.777 6.5156 6.5644 6.5156 2.5162 0 3.9247-0.96344 5.1484-2.3047l-2.0918-2.1172c-0.87125 0.8225-1.6945 1.3398-2.8945 1.3398-1.9512 0-3.1973-1.5517-3.1973-3.4805v-0.04687c0-1.8588 1.2691-3.4355 3.0566-3.4355 1.27 0 2.0691 0.54242 2.8691 1.3887l2.1875-2.3516c-1.1762-1.3175-2.6575-2.1172-5.0312-2.1172zm11.773 0.02344c-3.67 0-6.2324 2.9638-6.2324 6.5625v0.04687c0 3.8575 2.7997 6.5156 6.5859 6.5156 2.2812 0 3.9761-0.89477 5.1523-2.3535l-2.0469-1.8086c-0.98875 0.91625-1.8586 1.291-3.0586 1.291-1.6 0-2.7295-0.84625-3.082-2.4688h8.7734c0.025-0.33 0.0469-0.65891 0.0469-0.94141 0-3.575-1.9287-6.8438-6.1387-6.8438zm-25.516 0.07031c-2.1388 0-3.5051 0.40047-4.8926 1.0117l0.89453 2.7285c1.1538-0.42375 2.1174-0.68359 3.4824-0.68359 1.7875 0 2.7031 0.82539 2.7031 2.3066v0.21094c-0.89375-0.30625-1.8088-0.51758-3.0801-0.51758-2.9862 0-5.0801 1.2709-5.0801 4.0234v0.04687c0 2.4938 1.9512 3.8574 4.3262 3.8574 1.7412 0 2.9413-0.63586 3.8125-1.5996v1.3633h3.457v-7.3145c0-1.6938-0.42329-3.0802-1.3633-4.0215-0.89376-0.89375-2.3073-1.4121-4.2598-1.4121zm-13.316 2.7754c1.5062 0 2.4489 1.0816 2.6602 2.6816h-5.3887c0.28375-1.6238 1.2485-2.6816 2.7285-2.6816zm38.832 0.02344c1.505 0 2.4477 1.0816 2.6602 2.6816h-5.3887c0.2825-1.6238 1.2473-2.6816 2.7285-2.6816zm-25.561 4.3984c0.87 0 1.67 0.18945 2.2812 0.4707v0.63477c0 1.2938-1.1288 2.2109-2.7988 2.2109-1.1538 0-1.9531-0.5643-1.9531-1.5293v-0.04492c0-1.1288 0.94196-1.7422 2.4707-1.7422zm-25.115 8.6152c-5.0575 0-8.5859 3.8337-8.5859 8.5137v0.04883c0 4.7275 3.5991 8.4668 8.4453 8.4668 3.175 0 5.0575-1.1282 6.75-2.9395l-2.3047-2.3301c-1.295 1.1762-2.4469 1.9297-4.3281 1.9297-2.8225 0-4.7754-2.3533-4.7754-5.1758v-0.04492c0-2.8238 2.0004-5.1289 4.7754-5.1289 1.6475 0 2.9397 0.70492 4.2109 1.8574l2.3027-2.6562c-1.5288-1.5062-3.3865-2.541-6.4902-2.541zm14.209 3.9043c-3.9275 0-6.8457 2.9412-6.8457 6.5625v0.04687c0 3.6225 2.8951 6.5156 6.7988 6.5156 3.9288 0 6.8457-2.94 6.8457-6.5625v-0.04688c0-3.6225-2.8938-6.5156-6.7988-6.5156zm16.092 0c-2.1162-0.09375-3.2915 1.0341-4.0215 2.7754v-2.541h-3.5762v12.609h3.5762v-4.6582c0-3.0112 1.457-4.4453 3.832-4.4453h0.18945v-3.7402zm9.2188 0c-1.8588 0-3.0584 0.87062-3.9297 2.0469v-1.8125h-3.5742v16.371h3.5742v-5.4102c0.84625 1.0112 2.0234 1.8828 3.9297 1.8828 2.9862 0 5.7383-2.3056 5.7383-6.5156v-0.04688c0-4.2112-2.7983-6.5156-5.7383-6.5156zm11.604 0.04687c-2.54 0-4.6113 1.4343-4.6113 3.998v0.04687c0 2.4462 2.0006 3.2716 3.7656 3.7891 1.3888 0.4225 2.6113 0.68148 2.6113 1.459v0.04492c0 0.56375-0.4721 0.93945-1.5058 0.93945-1.1775 0-2.6116-0.51516-3.9766-1.5039l-1.5273 2.3516c1.67 1.3175 3.6452 1.9062 5.4102 1.9062 2.7288 0 4.8223-1.2696 4.8223-4.0684v-0.04883c0-2.305-2.0475-3.1527-3.8125-3.7402-1.3638-0.47-2.5625-0.79891-2.5625-1.5039v-0.04883c0-0.49375 0.44516-0.86914 1.3164-0.86914 0.91625 0 2.1639 0.44578 3.4102 1.1758l1.3652-2.4688c-1.365-0.9175-3.1051-1.459-4.7051-1.459zm-12.521 2.9863c1.67 0 3.0801 1.3887 3.0801 3.4824v0.04688c0 2.1175-1.4101 3.4805-3.0801 3.4805s-3.0586-1.3867-3.0586-3.4805v-0.04688c0-2.0938 1.3886-3.4824 3.0586-3.4824zm-24.439 0.04687c1.9762 0 3.3184 1.6249 3.3184 3.4824v0.04687c0 1.8588-1.224 3.4336-3.2715 3.4336-1.975 0-3.3164-1.6217-3.3164-3.4805v-0.04688c0-1.8587 1.2245-3.4355 3.2695-3.4355z" transform="matrix(.8 0 0 -.8 170 439.75)" fill="#002147"/><path d="m217.38 418.79c-2.212-0.604-2.688-2.405-4.079-4.351 0.033 0.801-0.047 1.662-0.278 2.577-1.123 4.435-5.556 6.893-10.616 7.405-2.627 0.265-4.86 0.3-9.653 0.831 0.067-1.256 3.745-12.051 11.99-15.074-7.282-0.33-14.553 2.189-14.553 2.189l2.109-2.134-2.857 0.058s16.832-17.142 25.923-6.938c5.157 5.79 1.803 11.961 6.82 13.594-0.825 1.392-2.387 2.504-4.806 1.843" fill="#fff"/><path d="m213.48 402.85c-5.723-2.796-13.111-2.55-21.312 7.544-6.082 7.485-13.35 10.404-19.838 11.015-1.41-3.343-2.232-6.996-2.334-10.827 7.724 1.297 16.235-3.001 20.979-5.959 10.201-6.362 18.717-6.05 23.266-2.91-3.666-3.236-11.021-4.67-20.984-1.204-5.234 1.82-9.519 2.453-12.951 2.453-4.294 0-7.244-0.992-9.041-1.892 1.155-3.819 3.05-7.317 5.52-10.325 4.951 4.602 11.963 6.078 23.54 5.675 12.872-0.449 17.313 5.359 17.858 12.199-0.799-2.211-2.015-4.456-4.703-5.769" stroke="#b71234" stroke-width="0.24" fill="#b71234"/></g></g></svg>
